<svg width="205" height="236" viewBox="0 0 205 236" fill="none" xmlns="http://www.w3.org/2000/svg">
<path d="M171.47 1C162.902 24.3814 182.969 32.5862 199.031 47.868C203.79 52.3963 204.244 59.8776 199.235 64.403C188.462 74.1344 147.619 59.9774 150.21 72.8058C152.886 86.0549 187.417 104.592 188.973 105.86C202.64 116.992 207.091 145.235 199.564 160.719C194.208 171.737 158.698 168.023 147.528 164.354C74.3797 140.326 107.341 143.192 25.1724 135.73C18.8822 135.159 12.2905 134.867 6.2495 136.711C0.0270705 138.61 0.225016 146.399 2.31279 150.611C9.23139 164.567 40.2046 188.238 31.8695 206.583C29.312 212.212 23.3186 215.768 20.6201 221.33C18.5062 225.688 18.7406 230.832 17.8008 235.583" stroke="white" stroke-width="2"/>
</svg>
