<svg width="1064" height="1267" viewBox="0 0 1064 1267" fill="none" xmlns="http://www.w3.org/2000/svg">
<path d="M1008.08 934.448L443.182 414.142V23.8104L28.1096 1C24.9043 8.54402 4.36709 30.2855 7.57176 42.404C11.43 56.898 30.8387 52.2648 36.4776 61.5906C43.0661 72.58 31.7291 117.251 28.3457 130.14C21.8759 154.555 7.09676 174.335 2.82235 198.75C-4.35982 239.737 10.1824 236.47 37.7242 262.073C84.141 305.258 46.9244 350.048 58.6176 400.777C68.1146 442.122 109.605 463.446 124.8 504.789C136.553 536.63 152.697 544.767 177.746 568.053C177.153 553.916 164.51 512.215 188.253 515.898C211.817 519.522 202.736 554.331 207.247 568.885C211.045 581.003 237.933 605.239 215.616 616.407C208.196 620.09 187.066 605.418 178.577 601.497C184.572 620.209 180.774 639.633 190.271 657.513C201.608 678.838 213.835 670.641 228.853 682.225C244.344 694.164 242.683 707.886 235.797 725.945C228.615 744.775 221.196 741.865 232.592 764.557C240.843 780.951 254.85 801.742 266.9 814.216C273.904 821.463 281.502 823.127 288.506 832.393C294.323 840.115 292.067 850.214 299.012 857.164C310.883 869.104 331.006 869.282 340.384 884.904C350.831 902.309 338.96 915.437 369.706 913.833C371.309 948.643 377.897 980.185 377.541 1014.99C394.695 1021.82 422.414 1013.69 440.399 1010.06C458.266 1034.18 481.355 1017.43 501.774 1030.56C510.678 1036.26 508.837 1050.52 514.239 1055.51C525.339 1065.72 533.529 1059.31 547.301 1062.87C557.51 1065.49 565.404 1072.97 575.138 1075.7C584.338 1078.26 599.475 1072.26 606.301 1080.4C614.492 1090.14 600.78 1107.96 613.127 1115.8C623.395 1122.33 638.115 1106.77 648.088 1109.03C659.721 1111.7 693.079 1142.17 701.271 1152.21C710.59 1163.68 719.969 1185.06 725.25 1199.79C733.501 1222.84 732.373 1234.13 749.408 1251C760.27 1261.75 749.942 1262.52 767.63 1265.67C779.204 1267.75 794.518 1259.37 806.212 1258.07C830.549 1255.39 855.122 1260.03 879.102 1255.45C901.421 1251.18 922.729 1244.17 945.64 1240.9C965.465 1238.05 1000.37 1240.25 1017.94 1230.8C1036.99 1220.64 1038.71 1197.65 1011.17 1201.93C1008.97 1187.26 1018.77 1167 1007.85 1156.85C1023.04 1136.06 1028.56 1121.38 1030.93 1095.96C1032 1084.79 1032.48 1072.44 1038 1063.05C1043.4 1053.78 1058.59 1048.26 1061.56 1040.3C1066.13 1027.94 1058.83 1022.42 1053.25 1015.53C1049.69 1011.07 1039.54 1013.21 1036.63 1009.29C1031.23 1002.1 1036.57 994.678 1033.6 987.431C1024.94 966.462 1014.61 958.205 1008.08 934.444C1008.26 938.424 1008.44 942.463 1008.2 946.384" stroke="white" stroke-width="2" stroke-linecap="round" stroke-linejoin="round"/>
</svg>
